<svg width="17" height="13" viewBox="0 0 17 13" fill="none" xmlns="http://www.w3.org/2000/svg">
<path id="Vector" d="M11.25 2.60417C11.25 1.9135 10.9756 1.25112 10.4873 0.762743C9.99888 0.274367 9.3365 0 8.64583 0H2.60417C1.9135 0 1.25112 0.274367 0.762743 0.762743C0.274367 1.25112 0 1.9135 0 2.60417V9.89583C0 10.5865 0.274367 11.2489 0.762743 11.7373C1.25112 12.2256 1.9135 12.5 2.60417 12.5H8.64583C9.3365 12.5 9.99888 12.2256 10.4873 11.7373C10.9756 11.2489 11.25 10.5865 11.25 9.89583V2.60417ZM12.0833 8.555L14.9837 10.82C15.6679 11.3542 16.6667 10.8667 16.6667 9.99917V2.50125C16.6667 1.63333 15.6679 1.14625 14.9837 1.68042L12.0833 3.945V8.555Z" fill="#515151"/>
</svg>
