<svg width="17" height="15" viewBox="0 0 17 15" fill="none" xmlns="http://www.w3.org/2000/svg">
<path id="Vector" d="M15.3125 2.1875H12.6562L12.0234 0.414063C11.9797 0.292711 11.8996 0.187816 11.794 0.113706C11.6885 0.0395965 11.5626 -0.000113793 11.4336 2.44927e-07H5.44141C5.17773 2.44927e-07 4.94141 0.166016 4.85352 0.414063L4.21875 2.1875H1.5625C0.699219 2.1875 0 2.88672 0 3.75V12.6562C0 13.5195 0.699219 14.2188 1.5625 14.2188H15.3125C16.1758 14.2188 16.875 13.5195 16.875 12.6562V3.75C16.875 2.88672 16.1758 2.1875 15.3125 2.1875ZM8.4375 11.0938C6.71094 11.0938 5.3125 9.69531 5.3125 7.96875C5.3125 6.24219 6.71094 4.84375 8.4375 4.84375C10.1641 4.84375 11.5625 6.24219 11.5625 7.96875C11.5625 9.69531 10.1641 11.0938 8.4375 11.0938ZM6.5625 7.96875C6.5625 8.46603 6.76004 8.94294 7.11167 9.29458C7.46331 9.64621 7.94022 9.84375 8.4375 9.84375C8.93478 9.84375 9.41169 9.64621 9.76333 9.29458C10.115 8.94294 10.3125 8.46603 10.3125 7.96875C10.3125 7.47147 10.115 6.99456 9.76333 6.64292C9.41169 6.29129 8.93478 6.09375 8.4375 6.09375C7.94022 6.09375 7.46331 6.29129 7.11167 6.64292C6.76004 6.99456 6.5625 7.47147 6.5625 7.96875Z" fill="#515151"/>
</svg>
