<svg width="15" height="20" viewBox="0 0 15 20" fill="none" xmlns="http://www.w3.org/2000/svg">
<g id="Group 21">
<path id="Vector" d="M8.15833 17.5001L0 9.3418V11.0085C0 11.4501 0.175 11.8751 0.491667 12.1835L6.98333 18.6751C7.63333 19.3251 8.69167 19.3251 9.34167 18.6751L14.5167 13.5001C15.1667 12.8501 15.1667 11.7918 14.5167 11.1418L8.15833 17.5001Z" fill="#515151"/>
<path id="Vector_2" d="M6.98333 14.5083C7.63333 15.1583 8.69167 15.1583 9.34167 14.5083L14.5167 9.33333C15.1667 8.68333 15.1667 7.625 14.5167 6.975L8.025 0.483333C7.70845 0.174418 7.28397 0.00103777 6.84167 0L1.66667 0C0.75 0 0 0.75 0 1.66667V6.84167C0 7.28333 0.175 7.70833 0.491667 8.01667L6.98333 14.5083ZM3.54167 2.5C3.81793 2.5 4.08289 2.60975 4.27824 2.8051C4.47359 3.00045 4.58333 3.2654 4.58333 3.54167C4.58333 3.81793 4.47359 4.08289 4.27824 4.27824C4.08289 4.47359 3.81793 4.58333 3.54167 4.58333C3.2654 4.58333 3.00045 4.47359 2.8051 4.27824C2.60975 4.08289 2.5 3.81793 2.5 3.54167C2.5 3.2654 2.60975 3.00045 2.8051 2.8051C3.00045 2.60975 3.2654 2.5 3.54167 2.5Z" fill="#515151"/>
</g>
</svg>
