<svg width="20" height="19" viewBox="0 0 20 19" fill="none" xmlns="http://www.w3.org/2000/svg">
<path id="Vector" d="M10.0005 1.49786C11.1759 0.465528 12.7068 -0.0690708 14.2694 0.00716347C15.8319 0.0833978 17.3035 0.764485 18.3729 1.90634C19.4422 3.0482 20.0254 4.56126 19.9991 6.12544C19.9729 7.68962 19.3391 9.18223 18.232 10.2875L13.178 15.3415L9.99854 18.519L2.95677 11.4782L1.76702 10.2865C0.660241 9.18109 0.0268539 7.68848 0.000834409 6.12442C-0.0251851 4.56035 0.558204 3.0475 1.6276 1.90585C2.697 0.764206 4.16854 0.0832992 5.73097 0.00715748C7.29339 -0.0689842 8.82514 0.46561 10.0005 1.49786Z" fill="#515151"/>
</svg>
