<svg xmlns="http://www.w3.org/2000/svg" width="34" height="34" viewBox="0 0 34 34" fill="none">
  <g clip-path="url(#clip0_88_3383)">
    <path d="M27.2875 18.3288C28.438 17.7893 28.438 16.1516 27.2868 15.6128L13.2246 9.02044C12.0699 8.4795 10.8105 9.5338 11.1386 10.7656L12.5267 15.9706L18.414 15.9706C18.6762 15.9751 18.9261 16.0825 19.1099 16.2695C19.2937 16.4565 19.3966 16.7082 19.3966 16.9704C19.3966 17.2326 19.2937 17.4844 19.1099 17.6714C18.9261 17.8584 18.6762 17.9657 18.414 17.9703H12.5267L11.1393 23.176C10.8105 24.4071 12.0706 25.4607 13.2246 24.9204L27.2875 18.3288Z" fill="white"/>
  </g>
  <defs>
    <clipPath id="clip0_88_3383">
      <rect width="24" height="24" fill="white" transform="translate(17) rotate(45)"/>
    </clipPath>
  </defs>
</svg>