<svg xmlns="http://www.w3.org/2000/svg" width="18" height="22" viewBox="0 0 18 22" fill="none">
<path d="M10.0367 0.533856C9.9413 0.454508 9.82819 0.399269 9.70693 0.372796C9.58567 0.346323 9.45982 0.349392 9.34 0.381744C9.22017 0.414095 9.10988 0.474782 9.01842 0.558687C8.92696 0.642592 8.85702 0.747256 8.81448 0.863856L6.68545 6.70998L4.34739 4.4445C4.26887 4.36834 4.1751 4.30969 4.07227 4.27241C3.96943 4.23512 3.85986 4.22005 3.75078 4.22819C3.6417 4.23633 3.53558 4.26749 3.43941 4.31962C3.34325 4.37175 3.25922 4.44367 3.19287 4.53063C1.09674 7.27708 0.0322266 10.04 0.0322266 12.7419C0.0322266 15.0005 0.929459 17.1666 2.52654 18.7637C4.12363 20.3608 6.28974 21.258 8.54836 21.258C10.807 21.258 12.9731 20.3608 14.5702 18.7637C16.1673 17.1666 17.0645 15.0005 17.0645 12.7419C17.0645 6.98869 12.1493 2.29031 10.0367 0.533856ZM13.9571 13.6458C13.7563 14.7671 13.2168 15.8 12.4112 16.6054C11.6056 17.4109 10.5726 17.9501 9.45126 18.1506C9.40875 18.1579 9.36568 18.1615 9.32255 18.1613C9.12835 18.1612 8.94126 18.0882 8.79839 17.9567C8.65552 17.8251 8.56729 17.6447 8.55121 17.4512C8.53514 17.2576 8.59238 17.0651 8.71159 16.9118C8.8308 16.7585 9.00328 16.6556 9.19481 16.6235C10.7984 16.3535 12.159 14.9929 12.4309 13.3864C12.4653 13.1839 12.5788 13.0034 12.7463 12.8845C12.9138 12.7656 13.1217 12.7182 13.3242 12.7526C13.5267 12.787 13.7072 12.9004 13.8261 13.0679C13.945 13.2354 13.9924 13.4433 13.958 13.6458H13.9571Z" fill="white"/>
</svg>